%FSLAX25Y25*%
%MOIN*%
G70*
G01*
G75*
G04 Layer_Color=32896*
%ADD10R,0.11811X0.07874*%
%ADD11R,0.19685X0.11811*%
%ADD12R,0.05906X0.04331*%
%ADD13R,0.04331X0.05906*%
%ADD14R,0.01969X0.04724*%
%ADD15R,0.03150X0.03543*%
%ADD16O,0.09843X0.02756*%
%ADD17C,0.03150*%
%ADD18C,0.01969*%
%ADD19C,0.05906*%
%ADD20C,0.01575*%
%ADD21C,0.01181*%
%ADD22C,0.03937*%
%ADD23C,0.04724*%
%ADD24C,0.05118*%
%ADD25C,0.00945*%
%ADD26R,0.07874X0.07874*%
%ADD27R,0.07874X0.07874*%
%ADD28P,0.08523X8X112.5*%
%ADD29C,0.07874*%
%ADD30P,0.10653X8X292.5*%
%ADD31C,0.09843*%
%ADD32R,0.09843X0.09843*%
%ADD33C,0.00984*%
%ADD34C,0.00787*%
%ADD35C,0.01000*%
D18*
X162000Y72126D02*
X169480Y72126D01*
Y95748D01*
Y97716D01*
X154126D02*
X169480D01*
X154126Y72126D02*
Y97716D01*
Y72126D02*
X162000Y72126D01*
X45126Y112626D02*
X53000D01*
X45126D02*
Y138216D01*
X60480D01*
Y136248D02*
Y138216D01*
Y112626D02*
Y136248D01*
X53000Y112626D02*
X60480D01*
X154913Y23543D02*
Y57402D01*
Y23543D02*
X169087D01*
Y57402D01*
X154913D02*
X169087D01*
X91413Y23543D02*
Y57402D01*
Y23543D02*
X105587D01*
Y57402D01*
X91413D02*
X105587D01*
X10913Y23543D02*
Y57402D01*
Y23543D02*
X25087D01*
Y57402D01*
X10913D02*
X25087D01*
D33*
X205992Y127571D02*
G03*
X205992Y127571I-492J0D01*
G01*
D34*
X211012Y113988D02*
Y125012D01*
X199988Y113988D02*
X211012D01*
X199988D02*
Y125012D01*
X199988Y125012D02*
X211012D01*
X205663Y133255D02*
X206582D01*
X206122D01*
Y130959D01*
X206582Y130500D01*
X207041D01*
X207500Y130959D01*
X204745Y130500D02*
X203827D01*
X204286D01*
Y133255D01*
X204745Y132796D01*
X169450Y101750D02*
Y104505D01*
X168072D01*
X167613Y104046D01*
Y103128D01*
X168072Y102668D01*
X169450D01*
X164858Y101750D02*
X166695D01*
X164858Y103587D01*
Y104046D01*
X165317Y104505D01*
X166236D01*
X166695Y104046D01*
X54500Y106500D02*
Y109255D01*
X53123D01*
X52663Y108796D01*
Y107878D01*
X53123Y107418D01*
X54500D01*
X51745Y106500D02*
X50827D01*
X51286D01*
Y109255D01*
X51745Y108796D01*
X20163Y62796D02*
X20622Y63255D01*
X21541D01*
X22000Y62796D01*
Y60959D01*
X21541Y60500D01*
X20622D01*
X20163Y60959D01*
X17408Y63255D02*
X19245D01*
Y61878D01*
X18327D01*
X19245D01*
Y60500D01*
X16490Y62796D02*
X16031Y63255D01*
X15112D01*
X14653Y62796D01*
Y62337D01*
X15112Y61878D01*
X15572D01*
X15112D01*
X14653Y61418D01*
Y60959D01*
X15112Y60500D01*
X16031D01*
X16490Y60959D01*
X164163Y63296D02*
X164622Y63755D01*
X165541D01*
X166000Y63296D01*
Y61459D01*
X165541Y61000D01*
X164622D01*
X164163Y61459D01*
X161408Y63755D02*
X163245D01*
Y62378D01*
X162327D01*
X163245D01*
Y61000D01*
X158653D02*
X160490D01*
X158653Y62837D01*
Y63296D01*
X159112Y63755D01*
X160031D01*
X160490Y63296D01*
X103663Y63111D02*
X104122Y63570D01*
X105041D01*
X105500Y63111D01*
Y61274D01*
X105041Y60815D01*
X104122D01*
X103663Y61274D01*
X100908Y63570D02*
X102745D01*
Y62192D01*
X101827D01*
X102745D01*
Y60815D01*
X99990D02*
X99072D01*
X99531D01*
Y63570D01*
X99990Y63111D01*
D35*
X192441Y61689D02*
Y85311D01*
X247559Y61689D02*
Y85311D01*
X192441Y61689D02*
X231811D01*
X208189Y85311D02*
X247559D01*
X223500Y41998D02*
X219501D01*
X221501D01*
Y36000D01*
X217502D02*
X215503D01*
X216502D01*
Y41998D01*
X217502Y40998D01*
M02*
