%FSLAX25Y25*%
%MOIN*%
G70*
G01*
G75*
G04 Layer_Color=65535*
%ADD10R,0.11811X0.07874*%
%ADD11R,0.19685X0.11811*%
%ADD12R,0.05906X0.04331*%
%ADD13R,0.04331X0.05906*%
%ADD14R,0.01969X0.04724*%
%ADD15R,0.03150X0.03543*%
%ADD16O,0.09843X0.02756*%
%ADD17C,0.03150*%
%ADD18C,0.01969*%
%ADD19C,0.05906*%
%ADD20C,0.01575*%
%ADD21C,0.01181*%
%ADD22C,0.03937*%
%ADD23C,0.04724*%
%ADD24C,0.05118*%
%ADD25C,0.00945*%
%ADD26R,0.07874X0.07874*%
%ADD27R,0.07874X0.07874*%
%ADD28P,0.08523X8X112.5*%
%ADD29C,0.07874*%
%ADD30P,0.10653X8X292.5*%
%ADD31C,0.09843*%
%ADD32R,0.09843X0.09843*%
%ADD33C,0.00984*%
%ADD34C,0.00787*%
%ADD35C,0.01000*%
D18*
X3594Y86409D02*
X25248D01*
Y106095D01*
X19342D02*
X25248D01*
X19342D02*
Y117905D01*
X25248D01*
Y137591D01*
X3594D02*
X25248D01*
D33*
X219783Y84260D02*
G03*
X219783Y84260I-492J0D01*
G01*
X89138Y100957D02*
G03*
X89138Y100957I-492J0D01*
G01*
D34*
X188937Y87937D02*
X188937Y91087D01*
X181063D02*
X188937D01*
X181063Y87937D02*
Y91087D01*
Y76913D02*
Y80063D01*
Y76913D02*
X188937D01*
X188937Y80063D02*
X188937Y76913D01*
X152437Y87937D02*
Y91087D01*
X144563D02*
X152437D01*
X144563Y87937D02*
X144563Y91087D01*
X144563Y80063D02*
X144563Y76913D01*
X152437D01*
Y80063D01*
X178937Y87937D02*
Y91087D01*
X171063D02*
X178937D01*
X171063D02*
X171063Y87937D01*
X171063Y76913D02*
X171063Y80063D01*
X171063Y76913D02*
X178937D01*
Y80063D01*
X76063Y57413D02*
Y60563D01*
Y57413D02*
X83937D01*
Y60563D01*
X76063Y68437D02*
Y71587D01*
X83937D01*
Y68437D02*
Y71587D01*
X72913Y32437D02*
X76063D01*
X72913Y24563D02*
Y32437D01*
Y24563D02*
X76063D01*
X83937Y32437D02*
X87087D01*
Y24563D02*
Y32437D01*
X83937Y24563D02*
X87087D01*
X64063Y57413D02*
Y60563D01*
Y57413D02*
X71937D01*
Y60563D01*
X64063Y68437D02*
Y71587D01*
X71937D01*
Y68437D02*
Y71587D01*
X185937Y62437D02*
Y65587D01*
X178063D02*
X185937D01*
X178063Y62437D02*
Y65587D01*
X185937Y51413D02*
Y54563D01*
X178063Y51413D02*
X185937D01*
X178063D02*
Y54563D01*
X123937Y62937D02*
Y66087D01*
X116063D02*
X123937D01*
X116063Y62937D02*
Y66087D01*
X123937Y51913D02*
Y55063D01*
X116063Y51913D02*
X123937D01*
X116063D02*
Y55063D01*
X52937Y68437D02*
Y71587D01*
X45063D02*
X52937D01*
X45063Y68437D02*
Y71587D01*
X52937Y57413D02*
Y60563D01*
X45063Y57413D02*
X52937D01*
X45063D02*
Y60563D01*
X170913Y42063D02*
X174063Y42063D01*
X170913Y42063D02*
Y49937D01*
X174063Y49937D01*
X181937D02*
X185087Y49937D01*
Y42063D02*
Y49937D01*
X181937Y42063D02*
X185087Y42063D01*
X220669Y88394D02*
Y90756D01*
X222441D01*
X229331Y88394D02*
Y90756D01*
X227559D02*
X229331D01*
X108913Y42063D02*
X112063D01*
X108913D02*
Y49937D01*
X112063D01*
X119937D02*
X123087D01*
Y42063D02*
Y49937D01*
X119937Y42063D02*
X123087D01*
X29413Y47063D02*
X32563D01*
X29413D02*
Y54937D01*
X32563D01*
X40437D02*
X43587D01*
Y47063D02*
Y54937D01*
X40437Y47063D02*
X43587D01*
X188913Y57937D02*
X192063Y57937D01*
X188913Y57937D02*
X188913Y50063D01*
X192063D01*
X199937Y57937D02*
X203087Y57937D01*
X203087Y50063D01*
X199937D02*
X203087D01*
X126913Y58937D02*
X130063D01*
X126913Y51063D02*
Y58937D01*
Y51063D02*
X130063D01*
X137937Y58937D02*
X141087D01*
Y51063D02*
Y58937D01*
X137937Y51063D02*
X141087D01*
X45913Y54937D02*
X49063D01*
X45913Y47063D02*
Y54937D01*
Y47063D02*
X49063D01*
X56937Y54937D02*
X60087D01*
Y47063D02*
Y54937D01*
X56937Y47063D02*
X60087D01*
X221913Y106063D02*
X225063D01*
X221913D02*
Y113937D01*
X225063D01*
X232937D02*
X236087D01*
Y106063D02*
Y113937D01*
X232937Y106063D02*
X236087D01*
X221913Y123437D02*
X225063D01*
X221913Y115563D02*
Y123437D01*
Y115563D02*
X225063D01*
X232937Y123437D02*
X236087D01*
Y115563D02*
Y123437D01*
X232937Y115563D02*
X236087D01*
X73701Y46756D02*
X73701Y40850D01*
X77638Y40850D01*
X86299Y40850D02*
X86299Y46756D01*
X82362Y40850D02*
X86299Y40850D01*
X185937Y37437D02*
Y40587D01*
X178063D02*
X185937D01*
X178063D02*
X178063Y37437D01*
X185937Y26413D02*
Y29563D01*
X178063Y26413D02*
X185937D01*
X178063D02*
X178063Y29563D01*
X123937Y37437D02*
Y40587D01*
X116063D02*
X123937D01*
X116063Y37437D02*
Y40587D01*
X123937Y26413D02*
Y29563D01*
X116063Y26413D02*
X123937D01*
X116063D02*
Y29563D01*
X44437Y38937D02*
Y42087D01*
X36563D02*
X44437D01*
X36563Y38937D02*
Y42087D01*
X44437Y27913D02*
Y31063D01*
X36563Y27913D02*
X44437D01*
X36563D02*
Y31063D01*
X134913Y42063D02*
X138063D01*
X134913D02*
Y49937D01*
X138063D01*
X145937D02*
X149087D01*
Y42063D02*
Y49937D01*
X145937Y42063D02*
X149087D01*
X53413Y37063D02*
X56563D01*
X53413D02*
Y44937D01*
X56563D01*
X64437D02*
X67587D01*
Y37063D02*
Y44937D01*
X64437Y37063D02*
X67587D01*
X206299Y37650D02*
X206299Y31744D01*
X202362Y37650D02*
X206299Y37650D01*
X193701Y31744D02*
X193701Y37650D01*
X197638Y37650D01*
X158913Y11063D02*
X162063D01*
X158913D02*
Y18937D01*
X162063D01*
X169937D02*
X173087D01*
Y11063D02*
Y18937D01*
X169937Y11063D02*
X173087D01*
X144299Y31244D02*
Y37150D01*
X140362D02*
X144299D01*
X131701Y31244D02*
Y37150D01*
X135638D01*
X106437Y18937D02*
X109587D01*
Y11063D02*
Y18937D01*
X106437Y11063D02*
X109587D01*
X95413D02*
X98563D01*
X95413D02*
Y18937D01*
X98563D01*
X62799Y31650D02*
X62799Y25744D01*
X58862Y31650D02*
X62799Y31650D01*
X50201Y25744D02*
X50201Y31650D01*
X54138Y31650D01*
X21937Y77937D02*
Y81087D01*
X14063D02*
X21937D01*
X14063Y77937D02*
Y81087D01*
X21937Y66913D02*
Y70063D01*
X14063Y66913D02*
X21937D01*
X14063D02*
Y70063D01*
X14976Y12063D02*
X18126D01*
X14976D02*
Y19937D01*
X18126D01*
X26000D02*
X29150D01*
Y12063D02*
Y19937D01*
X26000Y12063D02*
X29150D01*
X185937Y21937D02*
Y25087D01*
X178063D02*
X185937D01*
X178063Y21937D02*
Y25087D01*
X185937Y10913D02*
Y14063D01*
X178063Y10913D02*
X185937D01*
X178063D02*
Y14063D01*
X123937Y21937D02*
Y25087D01*
X116063D02*
X123937D01*
X116063Y21937D02*
Y25087D01*
X123937Y10913D02*
Y14063D01*
X116063Y10913D02*
X123937D01*
X116063D02*
Y14063D01*
X44437Y23437D02*
Y26587D01*
X36563D02*
X44437D01*
X36563Y23437D02*
Y26587D01*
X44437Y12413D02*
Y15563D01*
X36563Y12413D02*
X44437D01*
X36563D02*
Y15563D01*
X200063Y21937D02*
Y25087D01*
X207937D01*
Y21937D02*
Y25087D01*
Y10913D02*
Y14063D01*
X200063Y10913D02*
X207937D01*
X200063D02*
Y14063D01*
X198437Y21937D02*
Y25087D01*
X190563D02*
X198437D01*
X190563Y21937D02*
Y25087D01*
X198437Y10913D02*
Y14063D01*
X190563Y10913D02*
X198437D01*
X190563D02*
Y14063D01*
X137563Y21937D02*
Y25087D01*
X145437D01*
Y21937D02*
Y25087D01*
Y10913D02*
Y14063D01*
X137563Y10913D02*
X145437D01*
X137563D02*
Y14063D01*
X135937Y21937D02*
Y25087D01*
X128063D02*
X135937D01*
X128063Y21937D02*
Y25087D01*
X135937Y10913D02*
Y14063D01*
X128063Y10913D02*
X135937D01*
X128063D02*
Y14063D01*
X60437Y18937D02*
X63587D01*
Y11063D02*
Y18937D01*
X60437Y11063D02*
X63587D01*
X49413D02*
X52563D01*
X49413D02*
Y18937D01*
X52563D01*
X64913D02*
X68063D01*
X64913Y11063D02*
Y18937D01*
Y11063D02*
X68063D01*
X75937Y18937D02*
X79087D01*
Y11063D02*
Y18937D01*
X75937Y11063D02*
X79087D01*
X180413Y123437D02*
X183563D01*
X180413Y115563D02*
Y123437D01*
Y115563D02*
X183563D01*
X191437Y123437D02*
X194587D01*
Y115563D02*
Y123437D01*
X191437Y115563D02*
X194587D01*
X167563Y119437D02*
Y122587D01*
X175437D01*
Y119437D02*
Y122587D01*
Y108413D02*
Y111563D01*
X167563Y108413D02*
X175437D01*
X167563D02*
Y111563D01*
X106437Y109437D02*
Y112587D01*
X98563D02*
X106437D01*
X98563Y109437D02*
Y112587D01*
X106437Y98413D02*
Y101563D01*
X98563Y98413D02*
X106437D01*
X98563D02*
Y101563D01*
X108063Y98413D02*
Y101563D01*
Y98413D02*
X115937Y98413D01*
Y101563D01*
X108063Y109437D02*
Y112587D01*
X115937Y112587D01*
Y109437D02*
Y112587D01*
X75850Y121843D02*
X82150Y121843D01*
X75850Y102157D02*
X82150D01*
X75850Y121843D02*
X75850Y102157D01*
X82150Y121843D02*
X82150Y102157D01*
X138299Y117650D02*
X138299Y111744D01*
X134362Y117650D02*
X138299Y117650D01*
X125701Y111744D02*
X125701Y117650D01*
X129638Y117650D01*
X149563Y108413D02*
Y111563D01*
Y108413D02*
X157437D01*
Y111563D01*
X149563Y119437D02*
Y122587D01*
X157437D01*
Y119437D02*
Y122587D01*
X75937Y126563D02*
X79087Y126563D01*
X79087Y134437D01*
X75937D02*
X79087D01*
X64913Y126563D02*
X68063Y126563D01*
X64913Y126563D02*
X64913Y134437D01*
X68063D01*
X91437Y126563D02*
X94587D01*
Y134437D01*
X91437Y134437D02*
X94587Y134437D01*
X80413Y126563D02*
X83563D01*
X80413D02*
Y134437D01*
X83563Y134437D01*
X125413Y94063D02*
X128563D01*
X125413D02*
Y101937D01*
X128563D01*
X136437D02*
X139587D01*
Y94063D02*
Y101937D01*
X136437Y94063D02*
X139587D01*
X184337Y95796D02*
X183878Y96255D01*
X182959D01*
X182500Y95796D01*
Y93959D01*
X182959Y93500D01*
X183878D01*
X184337Y93959D01*
X185255Y93500D02*
X186173D01*
X185714D01*
Y96255D01*
X185255Y95796D01*
X187551Y96255D02*
X189388D01*
Y95796D01*
X187551Y93959D01*
Y93500D01*
X146837Y96296D02*
X146378Y96755D01*
X145459D01*
X145000Y96296D01*
Y94459D01*
X145459Y94000D01*
X146378D01*
X146837Y94459D01*
X147755Y94000D02*
X148673D01*
X148214D01*
Y96755D01*
X147755Y96296D01*
X151888Y96755D02*
X150969Y96296D01*
X150051Y95377D01*
Y94459D01*
X150510Y94000D01*
X151428D01*
X151888Y94459D01*
Y94918D01*
X151428Y95377D01*
X150051D01*
X173337Y95796D02*
X172878Y96255D01*
X171959D01*
X171500Y95796D01*
Y93959D01*
X171959Y93500D01*
X172878D01*
X173337Y93959D01*
X174255Y93500D02*
X175173D01*
X174714D01*
Y96255D01*
X174255Y95796D01*
X178388Y96255D02*
X176551D01*
Y94877D01*
X177469Y95337D01*
X177928D01*
X178388Y94877D01*
Y93959D01*
X177928Y93500D01*
X177010D01*
X176551Y93959D01*
X74000Y98755D02*
Y96459D01*
X74459Y96000D01*
X75378D01*
X75837Y96459D01*
Y98755D01*
X76755Y96000D02*
X77673D01*
X77214D01*
Y98755D01*
X76755Y98296D01*
X80000Y137000D02*
Y139755D01*
X81378D01*
X81837Y139296D01*
Y138377D01*
X81378Y137918D01*
X80000D01*
X80918D02*
X81837Y137000D01*
X84592D02*
X82755D01*
X84592Y138837D01*
Y139296D01*
X84132Y139755D01*
X83214D01*
X82755Y139296D01*
X87347Y139755D02*
X86428Y139296D01*
X85510Y138377D01*
Y137459D01*
X85969Y137000D01*
X86888D01*
X87347Y137459D01*
Y137918D01*
X86888Y138377D01*
X85510D01*
X64500Y136500D02*
Y139255D01*
X65877D01*
X66337Y138796D01*
Y137878D01*
X65877Y137418D01*
X64500D01*
X65418D02*
X66337Y136500D01*
X69092D02*
X67255D01*
X69092Y138337D01*
Y138796D01*
X68633Y139255D01*
X67714D01*
X67255Y138796D01*
X71847Y139255D02*
X70010D01*
Y137878D01*
X70928Y138337D01*
X71387D01*
X71847Y137878D01*
Y136959D01*
X71387Y136500D01*
X70469D01*
X70010Y136959D01*
X149500Y126500D02*
Y129255D01*
X150877D01*
X151337Y128796D01*
Y127877D01*
X150877Y127418D01*
X149500D01*
X150418D02*
X151337Y126500D01*
X154092D02*
X152255D01*
X154092Y128337D01*
Y128796D01*
X153632Y129255D01*
X152714D01*
X152255Y128796D01*
X156388Y126500D02*
Y129255D01*
X155010Y127877D01*
X156847D01*
X99500Y92500D02*
Y95255D01*
X100877D01*
X101337Y94796D01*
Y93878D01*
X100877Y93418D01*
X99500D01*
X100418D02*
X101337Y92500D01*
X104092D02*
X102255D01*
X104092Y94337D01*
Y94796D01*
X103632Y95255D01*
X102714D01*
X102255Y94796D01*
X105010D02*
X105469Y95255D01*
X106388D01*
X106847Y94796D01*
Y94337D01*
X106388Y93878D01*
X105928D01*
X106388D01*
X106847Y93418D01*
Y92959D01*
X106388Y92500D01*
X105469D01*
X105010Y92959D01*
X109500Y93000D02*
Y95755D01*
X110878D01*
X111337Y95296D01*
Y94377D01*
X110878Y93918D01*
X109500D01*
X110418D02*
X111337Y93000D01*
X114092D02*
X112255D01*
X114092Y94837D01*
Y95296D01*
X113633Y95755D01*
X112714D01*
X112255Y95296D01*
X116847Y93000D02*
X115010D01*
X116847Y94837D01*
Y95296D01*
X116388Y95755D01*
X115469D01*
X115010Y95296D01*
X181050Y126850D02*
Y129605D01*
X182428D01*
X182887Y129146D01*
Y128227D01*
X182428Y127768D01*
X181050D01*
X181968D02*
X182887Y126850D01*
X185642D02*
X183805D01*
X185642Y128687D01*
Y129146D01*
X185182Y129605D01*
X184264D01*
X183805Y129146D01*
X186560Y126850D02*
X187478D01*
X187019D01*
Y129605D01*
X186560Y129146D01*
X191500Y5500D02*
Y8255D01*
X192877D01*
X193337Y7796D01*
Y6877D01*
X192877Y6418D01*
X191500D01*
X192418D02*
X193337Y5500D01*
X196092D02*
X194255D01*
X196092Y7337D01*
Y7796D01*
X195633Y8255D01*
X194714D01*
X194255Y7796D01*
X197010D02*
X197469Y8255D01*
X198388D01*
X198847Y7796D01*
Y5959D01*
X198388Y5500D01*
X197469D01*
X197010Y5959D01*
Y7796D01*
X128000Y5500D02*
Y8255D01*
X129377D01*
X129837Y7796D01*
Y6877D01*
X129377Y6418D01*
X128000D01*
X128918D02*
X129837Y5500D01*
X130755D02*
X131673D01*
X131214D01*
Y8255D01*
X130755Y7796D01*
X133051Y5959D02*
X133510Y5500D01*
X134428D01*
X134888Y5959D01*
Y7796D01*
X134428Y8255D01*
X133510D01*
X133051Y7796D01*
Y7337D01*
X133510Y6877D01*
X134888D01*
X68500Y6000D02*
Y8755D01*
X69877D01*
X70337Y8296D01*
Y7378D01*
X69877Y6918D01*
X68500D01*
X69418D02*
X70337Y6000D01*
X71255D02*
X72173D01*
X71714D01*
Y8755D01*
X71255Y8296D01*
X73551D02*
X74010Y8755D01*
X74928D01*
X75388Y8296D01*
Y7837D01*
X74928Y7378D01*
X75388Y6918D01*
Y6459D01*
X74928Y6000D01*
X74010D01*
X73551Y6459D01*
Y6918D01*
X74010Y7378D01*
X73551Y7837D01*
Y8296D01*
X74010Y7378D02*
X74928D01*
X77000Y74000D02*
Y76755D01*
X78377D01*
X78837Y76296D01*
Y75378D01*
X78377Y74918D01*
X77000D01*
X77918D02*
X78837Y74000D01*
X79755D02*
X80673D01*
X80214D01*
Y76755D01*
X79755Y76296D01*
X82051Y76755D02*
X83887D01*
Y76296D01*
X82051Y74459D01*
Y74000D01*
X178000Y6000D02*
Y8755D01*
X179377D01*
X179837Y8296D01*
Y7378D01*
X179377Y6918D01*
X178000D01*
X178918D02*
X179837Y6000D01*
X180755D02*
X181673D01*
X181214D01*
Y8755D01*
X180755Y8296D01*
X184888Y8755D02*
X183969Y8296D01*
X183051Y7378D01*
Y6459D01*
X183510Y6000D01*
X184428D01*
X184888Y6459D01*
Y6918D01*
X184428Y7378D01*
X183051D01*
X116000Y5500D02*
Y8255D01*
X117377D01*
X117837Y7796D01*
Y6877D01*
X117377Y6418D01*
X116000D01*
X116918D02*
X117837Y5500D01*
X118755D02*
X119673D01*
X119214D01*
Y8255D01*
X118755Y7796D01*
X122888Y8255D02*
X121051D01*
Y6877D01*
X121969Y7337D01*
X122428D01*
X122888Y6877D01*
Y5959D01*
X122428Y5500D01*
X121510D01*
X121051Y5959D01*
X36500Y7000D02*
Y9755D01*
X37878D01*
X38337Y9296D01*
Y8377D01*
X37878Y7918D01*
X36500D01*
X37418D02*
X38337Y7000D01*
X39255D02*
X40173D01*
X39714D01*
Y9755D01*
X39255Y9296D01*
X42928Y7000D02*
Y9755D01*
X41551Y8377D01*
X43387D01*
X84500Y19000D02*
Y21755D01*
X85878D01*
X86337Y21296D01*
Y20378D01*
X85878Y19918D01*
X84500D01*
X85418D02*
X86337Y19000D01*
X87255D02*
X88173D01*
X87714D01*
Y21755D01*
X87255Y21296D01*
X89551D02*
X90010Y21755D01*
X90928D01*
X91387Y21296D01*
Y20837D01*
X90928Y20378D01*
X90469D01*
X90928D01*
X91387Y19918D01*
Y19459D01*
X90928Y19000D01*
X90010D01*
X89551Y19459D01*
X23500Y73500D02*
Y76255D01*
X24878D01*
X25337Y75796D01*
Y74878D01*
X24878Y74418D01*
X23500D01*
X24418D02*
X25337Y73500D01*
X26255D02*
X27173D01*
X26714D01*
Y76255D01*
X26255Y75796D01*
X30387Y73500D02*
X28551D01*
X30387Y75337D01*
Y75796D01*
X29928Y76255D01*
X29010D01*
X28551Y75796D01*
X171000Y32000D02*
Y34755D01*
X172378D01*
X172837Y34296D01*
Y33378D01*
X172378Y32918D01*
X171000D01*
X171918D02*
X172837Y32000D01*
X173755D02*
X174673D01*
X174214D01*
Y34755D01*
X173755Y34296D01*
X176051Y32000D02*
X176969D01*
X176510D01*
Y34755D01*
X176051Y34296D01*
X107500Y32000D02*
Y34755D01*
X108878D01*
X109337Y34296D01*
Y33378D01*
X108878Y32918D01*
X107500D01*
X108418D02*
X109337Y32000D01*
X110255D02*
X111173D01*
X110714D01*
Y34755D01*
X110255Y34296D01*
X112551D02*
X113010Y34755D01*
X113928D01*
X114388Y34296D01*
Y32459D01*
X113928Y32000D01*
X113010D01*
X112551Y32459D01*
Y34296D01*
X30000Y33500D02*
Y36255D01*
X31378D01*
X31837Y35796D01*
Y34877D01*
X31378Y34418D01*
X30000D01*
X30918D02*
X31837Y33500D01*
X32755Y33959D02*
X33214Y33500D01*
X34133D01*
X34592Y33959D01*
Y35796D01*
X34133Y36255D01*
X33214D01*
X32755Y35796D01*
Y35337D01*
X33214Y34877D01*
X34592D01*
X214000Y117000D02*
Y119755D01*
X215377D01*
X215837Y119296D01*
Y118377D01*
X215377Y117918D01*
X214000D01*
X214918D02*
X215837Y117000D01*
X216755Y119296D02*
X217214Y119755D01*
X218132D01*
X218592Y119296D01*
Y118837D01*
X218132Y118377D01*
X218592Y117918D01*
Y117459D01*
X218132Y117000D01*
X217214D01*
X216755Y117459D01*
Y117918D01*
X217214Y118377D01*
X216755Y118837D01*
Y119296D01*
X217214Y118377D02*
X218132D01*
X198000Y60000D02*
Y62755D01*
X199378D01*
X199837Y62296D01*
Y61378D01*
X199378Y60918D01*
X198000D01*
X198918D02*
X199837Y60000D01*
X200755Y62755D02*
X202592D01*
Y62296D01*
X200755Y60459D01*
Y60000D01*
X137000Y61500D02*
Y64255D01*
X138377D01*
X138837Y63796D01*
Y62878D01*
X138377Y62418D01*
X137000D01*
X137918D02*
X138837Y61500D01*
X141592Y64255D02*
X140673Y63796D01*
X139755Y62878D01*
Y61959D01*
X140214Y61500D01*
X141132D01*
X141592Y61959D01*
Y62418D01*
X141132Y62878D01*
X139755D01*
X56500Y57000D02*
Y59755D01*
X57877D01*
X58337Y59296D01*
Y58377D01*
X57877Y57918D01*
X56500D01*
X57418D02*
X58337Y57000D01*
X61092Y59755D02*
X59255D01*
Y58377D01*
X60173Y58837D01*
X60632D01*
X61092Y58377D01*
Y57459D01*
X60632Y57000D01*
X59714D01*
X59255Y57459D01*
X65500Y74500D02*
Y77255D01*
X66878D01*
X67337Y76796D01*
Y75877D01*
X66878Y75418D01*
X65500D01*
X66418D02*
X67337Y74500D01*
X69633D02*
Y77255D01*
X68255Y75877D01*
X70092D01*
X118000Y68000D02*
Y70755D01*
X119378D01*
X119837Y70296D01*
Y69377D01*
X119378Y68918D01*
X118000D01*
X118918D02*
X119837Y68000D01*
X120755Y70296D02*
X121214Y70755D01*
X122133D01*
X122592Y70296D01*
Y69837D01*
X122133Y69377D01*
X121673D01*
X122133D01*
X122592Y68918D01*
Y68459D01*
X122133Y68000D01*
X121214D01*
X120755Y68459D01*
X46500Y74500D02*
Y77255D01*
X47877D01*
X48337Y76796D01*
Y75877D01*
X47877Y75418D01*
X46500D01*
X47418D02*
X48337Y74500D01*
X51092D02*
X49255D01*
X51092Y76337D01*
Y76796D01*
X50633Y77255D01*
X49714D01*
X49255Y76796D01*
X180500Y67500D02*
Y70255D01*
X181878D01*
X182337Y69796D01*
Y68878D01*
X181878Y68418D01*
X180500D01*
X181418D02*
X182337Y67500D01*
X183255D02*
X184173D01*
X183714D01*
Y70255D01*
X183255Y69796D01*
X128187Y125009D02*
Y126846D01*
X127727Y127305D01*
X126809D01*
X126350Y126846D01*
Y125009D01*
X126809Y124550D01*
X127727D01*
X127268Y125468D02*
X128187Y124550D01*
X127727D02*
X128187Y125009D01*
X130942Y127305D02*
X129105D01*
Y125927D01*
X130023Y126387D01*
X130482D01*
X130942Y125927D01*
Y125009D01*
X130482Y124550D01*
X129564D01*
X129105Y125009D01*
X206337Y40959D02*
Y42796D01*
X205877Y43255D01*
X204959D01*
X204500Y42796D01*
Y40959D01*
X204959Y40500D01*
X205877D01*
X205418Y41418D02*
X206337Y40500D01*
X205877D02*
X206337Y40959D01*
X208632Y40500D02*
Y43255D01*
X207255Y41877D01*
X209092D01*
X128337Y39959D02*
Y41796D01*
X127877Y42255D01*
X126959D01*
X126500Y41796D01*
Y39959D01*
X126959Y39500D01*
X127877D01*
X127418Y40418D02*
X128337Y39500D01*
X127877D02*
X128337Y39959D01*
X129255Y41796D02*
X129714Y42255D01*
X130632D01*
X131092Y41796D01*
Y41337D01*
X130632Y40878D01*
X130173D01*
X130632D01*
X131092Y40418D01*
Y39959D01*
X130632Y39500D01*
X129714D01*
X129255Y39959D01*
X48337Y33959D02*
Y35796D01*
X47877Y36255D01*
X46959D01*
X46500Y35796D01*
Y33959D01*
X46959Y33500D01*
X47877D01*
X47418Y34418D02*
X48337Y33500D01*
X47877D02*
X48337Y33959D01*
X51092Y33500D02*
X49255D01*
X51092Y35337D01*
Y35796D01*
X50633Y36255D01*
X49714D01*
X49255Y35796D01*
X87337Y35959D02*
Y37796D01*
X86878Y38255D01*
X85959D01*
X85500Y37796D01*
Y35959D01*
X85959Y35500D01*
X86878D01*
X86418Y36418D02*
X87337Y35500D01*
X86878D02*
X87337Y35959D01*
X88255Y35500D02*
X89173D01*
X88714D01*
Y38255D01*
X88255Y37796D01*
X229000Y96255D02*
Y93500D01*
X230378D01*
X230837Y93959D01*
Y95796D01*
X230378Y96255D01*
X229000D01*
X231755Y93500D02*
X232673D01*
X232214D01*
Y96255D01*
X231755Y95796D01*
X143837Y105296D02*
X143377Y105755D01*
X142459D01*
X142000Y105296D01*
Y103459D01*
X142459Y103000D01*
X143377D01*
X143837Y103459D01*
X144755Y103000D02*
X145673D01*
X145214D01*
Y105755D01*
X144755Y105296D01*
X148428Y103000D02*
Y105755D01*
X147051Y104377D01*
X148888D01*
X169337Y129296D02*
X168877Y129755D01*
X167959D01*
X167500Y129296D01*
Y127459D01*
X167959Y127000D01*
X168877D01*
X169337Y127459D01*
X170255Y127000D02*
X171173D01*
X170714D01*
Y129755D01*
X170255Y129296D01*
X172551D02*
X173010Y129755D01*
X173928D01*
X174388Y129296D01*
Y128837D01*
X173928Y128377D01*
X173469D01*
X173928D01*
X174388Y127918D01*
Y127459D01*
X173928Y127000D01*
X173010D01*
X172551Y127459D01*
X203837Y7796D02*
X203378Y8255D01*
X202459D01*
X202000Y7796D01*
Y5959D01*
X202459Y5500D01*
X203378D01*
X203837Y5959D01*
X204755Y5500D02*
X205673D01*
X205214D01*
Y8255D01*
X204755Y7796D01*
X208888Y5500D02*
X207051D01*
X208888Y7337D01*
Y7796D01*
X208428Y8255D01*
X207510D01*
X207051Y7796D01*
X140337Y8296D02*
X139877Y8755D01*
X138959D01*
X138500Y8296D01*
Y6459D01*
X138959Y6000D01*
X139877D01*
X140337Y6459D01*
X141255Y6000D02*
X142173D01*
X141714D01*
Y8755D01*
X141255Y8296D01*
X143551Y6000D02*
X144469D01*
X144010D01*
Y8755D01*
X143551Y8296D01*
X54837D02*
X54378Y8755D01*
X53459D01*
X53000Y8296D01*
Y6459D01*
X53459Y6000D01*
X54378D01*
X54837Y6459D01*
X55755Y6000D02*
X56673D01*
X56214D01*
Y8755D01*
X55755Y8296D01*
X58051D02*
X58510Y8755D01*
X59428D01*
X59887Y8296D01*
Y6459D01*
X59428Y6000D01*
X58510D01*
X58051Y6459D01*
Y8296D01*
X9837Y15796D02*
X9377Y16255D01*
X8459D01*
X8000Y15796D01*
Y13959D01*
X8459Y13500D01*
X9377D01*
X9837Y13959D01*
X10755D02*
X11214Y13500D01*
X12133D01*
X12592Y13959D01*
Y15796D01*
X12133Y16255D01*
X11214D01*
X10755Y15796D01*
Y15337D01*
X11214Y14877D01*
X12592D01*
X170337Y23296D02*
X169878Y23755D01*
X168959D01*
X168500Y23296D01*
Y21459D01*
X168959Y21000D01*
X169878D01*
X170337Y21459D01*
X171255Y23296D02*
X171714Y23755D01*
X172633D01*
X173092Y23296D01*
Y22837D01*
X172633Y22377D01*
X173092Y21918D01*
Y21459D01*
X172633Y21000D01*
X171714D01*
X171255Y21459D01*
Y21918D01*
X171714Y22377D01*
X171255Y22837D01*
Y23296D01*
X171714Y22377D02*
X172633D01*
X102837Y23296D02*
X102377Y23755D01*
X101459D01*
X101000Y23296D01*
Y21459D01*
X101459Y21000D01*
X102377D01*
X102837Y21459D01*
X103755Y23755D02*
X105592D01*
Y23296D01*
X103755Y21459D01*
Y21000D01*
X147337Y55296D02*
X146878Y55755D01*
X145959D01*
X145500Y55296D01*
Y53459D01*
X145959Y53000D01*
X146878D01*
X147337Y53459D01*
X150092Y55755D02*
X149173Y55296D01*
X148255Y54378D01*
Y53459D01*
X148714Y53000D01*
X149633D01*
X150092Y53459D01*
Y53918D01*
X149633Y54378D01*
X148255D01*
X67647Y49162D02*
X67188Y49621D01*
X66270D01*
X65811Y49162D01*
Y47325D01*
X66270Y46866D01*
X67188D01*
X67647Y47325D01*
X70402Y49621D02*
X68565D01*
Y48244D01*
X69484Y48703D01*
X69943D01*
X70402Y48244D01*
Y47325D01*
X69943Y46866D01*
X69025D01*
X68565Y47325D01*
X216337Y110796D02*
X215878Y111255D01*
X214959D01*
X214500Y110796D01*
Y108959D01*
X214959Y108500D01*
X215878D01*
X216337Y108959D01*
X218633Y108500D02*
Y111255D01*
X217255Y109878D01*
X219092D01*
X107337Y55296D02*
X106878Y55755D01*
X105959D01*
X105500Y55296D01*
Y53459D01*
X105959Y53000D01*
X106878D01*
X107337Y53459D01*
X108255Y55296D02*
X108714Y55755D01*
X109633D01*
X110092Y55296D01*
Y54837D01*
X109633Y54378D01*
X109173D01*
X109633D01*
X110092Y53918D01*
Y53459D01*
X109633Y53000D01*
X108714D01*
X108255Y53459D01*
X30837Y59796D02*
X30378Y60255D01*
X29459D01*
X29000Y59796D01*
Y57959D01*
X29459Y57500D01*
X30378D01*
X30837Y57959D01*
X33592Y57500D02*
X31755D01*
X33592Y59337D01*
Y59796D01*
X33132Y60255D01*
X32214D01*
X31755Y59796D01*
X173337Y54296D02*
X172878Y54755D01*
X171959D01*
X171500Y54296D01*
Y52459D01*
X171959Y52000D01*
X172878D01*
X173337Y52459D01*
X174255Y52000D02*
X175173D01*
X174714D01*
Y54755D01*
X174255Y54296D01*
D35*
X29999Y113498D02*
X28999Y114498D01*
X27000D01*
X26000Y113498D01*
Y109500D01*
X27000Y108500D01*
X28999D01*
X29999Y109500D01*
X31998Y108500D02*
X33997D01*
X32998D01*
Y114498D01*
X31998Y113498D01*
X36996D02*
X37996Y114498D01*
X39996D01*
X40995Y113498D01*
Y112499D01*
X39996Y111499D01*
X40995Y110499D01*
Y109500D01*
X39996Y108500D01*
X37996D01*
X36996Y109500D01*
Y110499D01*
X37996Y111499D01*
X36996Y112499D01*
Y113498D01*
X37996Y111499D02*
X39996D01*
M02*
