M48
;Layer_Color=9474304
;FILE_FORMAT=2:5
INCH,LZ
;TYPE=PLATED
T1F00S00C0.02362
T2F00S00C0.03150
T3F00S00C0.03543
%
T01
X0069354Y0084
X012
X0200315Y0081374
Y0093185
Y0104996
X0239685Y0065626
Y0053815
Y0042004
T02
X0018Y0030315
Y0040315
Y0050315
X00985
Y0040315
Y0030315
X0162
Y0040315
Y0050315
T03
X0053Y01205
Y01305
X0162Y009
Y008
X02055Y01195
M30
