%FSLAX25Y25*%
%MOIN*%
G70*
G01*
G75*
G04 Layer_Color=8388736*
%ADD10R,0.11811X0.07874*%
%ADD11R,0.19685X0.11811*%
%ADD12R,0.05906X0.04331*%
%ADD13R,0.04331X0.05906*%
%ADD14R,0.01969X0.04724*%
%ADD15R,0.03150X0.03543*%
%ADD16O,0.09843X0.02756*%
%ADD17C,0.03150*%
%ADD18C,0.01969*%
%ADD19C,0.05906*%
%ADD20C,0.01575*%
%ADD21C,0.01181*%
%ADD22C,0.03937*%
%ADD23C,0.04724*%
%ADD24C,0.05118*%
%ADD25C,0.00945*%
%ADD26R,0.07874X0.07874*%
%ADD27R,0.07874X0.07874*%
%ADD28P,0.08523X8X112.5*%
%ADD29C,0.07874*%
%ADD30P,0.10653X8X292.5*%
%ADD31C,0.09843*%
%ADD32R,0.09843X0.09843*%
%ADD33C,0.00984*%
%ADD34C,0.00787*%
%ADD35C,0.01000*%
%ADD36R,0.12611X0.08674*%
%ADD37R,0.20485X0.12611*%
%ADD38R,0.06706X0.05131*%
%ADD39R,0.05131X0.06706*%
%ADD40R,0.02769X0.05524*%
%ADD41R,0.03950X0.04343*%
%ADD42O,0.10642X0.03556*%
%ADD43R,0.08674X0.08674*%
%ADD44R,0.08674X0.08674*%
%ADD45P,0.09389X8X112.5*%
%ADD46C,0.08674*%
%ADD47P,0.11519X8X292.5*%
%ADD48C,0.10642*%
%ADD49R,0.10642X0.10642*%
D36*
X9500Y112000D02*
D03*
D37*
X13043Y95465D02*
D03*
Y128535D02*
D03*
D38*
X185000Y80063D02*
D03*
Y87937D02*
D03*
X148500Y80063D02*
D03*
Y87937D02*
D03*
X175000Y80063D02*
D03*
Y87937D02*
D03*
X80000Y60563D02*
D03*
Y68437D02*
D03*
X68000Y60563D02*
D03*
Y68437D02*
D03*
X182000Y62437D02*
D03*
Y54563D02*
D03*
X120000Y62937D02*
D03*
Y55063D02*
D03*
X49000Y68437D02*
D03*
Y60563D02*
D03*
X182000Y37437D02*
D03*
Y29563D02*
D03*
X120000Y37437D02*
D03*
Y29563D02*
D03*
X40500Y38937D02*
D03*
Y31063D02*
D03*
X18000Y77937D02*
D03*
Y70063D02*
D03*
X182000Y21937D02*
D03*
Y14063D02*
D03*
X120000Y21937D02*
D03*
Y14063D02*
D03*
X40500Y23437D02*
D03*
Y15563D02*
D03*
X204000Y14063D02*
D03*
Y21937D02*
D03*
X194500D02*
D03*
Y14063D02*
D03*
X141500D02*
D03*
Y21937D02*
D03*
X132000D02*
D03*
Y14063D02*
D03*
X171500Y111563D02*
D03*
Y119437D02*
D03*
X102500Y109437D02*
D03*
Y101563D02*
D03*
X112000D02*
D03*
X112000Y109437D02*
D03*
X153500Y111563D02*
D03*
Y119437D02*
D03*
D39*
X76063Y28500D02*
D03*
X83937D02*
D03*
X181937Y46000D02*
D03*
X174063D02*
D03*
X119937D02*
D03*
X112063D02*
D03*
X40437Y51000D02*
D03*
X32563D02*
D03*
X192063Y54000D02*
D03*
X199937D02*
D03*
X130063Y55000D02*
D03*
X137937D02*
D03*
X49063Y51000D02*
D03*
X56937D02*
D03*
X232937Y110000D02*
D03*
X225063D02*
D03*
Y119500D02*
D03*
X232937D02*
D03*
X145937Y46000D02*
D03*
X138063D02*
D03*
X64437Y41000D02*
D03*
X56563D02*
D03*
X169937Y15000D02*
D03*
X162063D02*
D03*
X98563D02*
D03*
X106437D02*
D03*
X26000Y16000D02*
D03*
X18126D02*
D03*
X52563Y15000D02*
D03*
X60437D02*
D03*
X68063D02*
D03*
X75937D02*
D03*
X183563Y119500D02*
D03*
X191437D02*
D03*
X75937Y130500D02*
D03*
X68063D02*
D03*
X91437D02*
D03*
X83563D02*
D03*
X136437Y98000D02*
D03*
X128563D02*
D03*
D40*
X222441Y84260D02*
D03*
X227559D02*
D03*
X225000Y91740D02*
D03*
D41*
X83740Y48921D02*
D03*
X76260D02*
D03*
X80000Y39079D02*
D03*
X196260Y29579D02*
D03*
X203740Y29579D02*
D03*
X200000Y39421D02*
D03*
X134260Y29079D02*
D03*
X141740D02*
D03*
X138000Y38921D02*
D03*
X52760Y23579D02*
D03*
X60240D02*
D03*
X56500Y33421D02*
D03*
X128260Y109579D02*
D03*
X135740D02*
D03*
X132000Y119421D02*
D03*
D42*
X69354Y119500D02*
D03*
Y114500D02*
D03*
Y109500D02*
D03*
Y104500D02*
D03*
X88646Y119500D02*
D03*
X88646Y114500D02*
D03*
X88646Y109500D02*
D03*
X88646Y104500D02*
D03*
D43*
X205500Y119500D02*
D03*
D44*
X162000Y80000D02*
D03*
X53000Y120500D02*
D03*
X162000Y50315D02*
D03*
X98500D02*
D03*
X18000D02*
D03*
D45*
X162000Y90000D02*
D03*
X53000Y130500D02*
D03*
D46*
X162000Y30315D02*
D03*
Y40315D02*
D03*
X98500Y30315D02*
D03*
Y40315D02*
D03*
X18000Y30315D02*
D03*
Y40315D02*
D03*
X69354Y84000D02*
D03*
X120000D02*
D03*
D47*
X239685Y65626D02*
D03*
X200315Y81374D02*
D03*
D48*
X239685Y53815D02*
D03*
X200315Y93185D02*
D03*
D49*
Y104996D02*
D03*
X239685Y42004D02*
D03*
M02*
